<svg xmlns="http://www.w3.org/2000/svg" width="15" height="15" viewBox="0 0 20 20"><path class="iconOutlineFillColor" fill-rule="evenodd" d="M18.442.007c.058.014.111.03.162.061.046.027.053.038.092.073l1.163 1.163c.04.044.074.087.099.142a.486.486 0 0 1 0 .395.588.588 0 0 1-.1.144l-8.175 8.176 7.8 7.8.038.044a.484.484 0 0 1 .033.546c-.026.045-.036.053-.071.092l-1.217 1.217a.489.489 0 0 1-.681 0l-7.8-7.801-7.77 7.77-.044.04a.489.489 0 0 1-.547.034c-.044-.028-.052-.038-.09-.073L.17 18.667a.565.565 0 0 1-.1-.143.486.486 0 0 1 0-.395.588.588 0 0 1 .1-.143l7.77-7.771-7.8-7.8-.039-.044a.483.483 0 0 1-.033-.546c.027-.045.038-.053.072-.092L1.357.516A.565.565 0 0 1 1.5.417a.489.489 0 0 1 .396 0c.055.025.098.06.143.1l7.8 7.8L18.015.14l.043-.04c.042-.029.052-.038.1-.06A.534.534 0 0 1 18.327 0c.058 0 .058 0 .115.007z"/></svg>