<svg xmlns="http://www.w3.org/2000/svg" width="31.2" height="18" viewBox="-231 172 31.2 18"><g fill="#FFF"><path d="M-227.3 172l-.6 3.1c.7-1.1 1.6-2.2 2.6-3.1h-2zM-226.4 178.6c-.8 1.7-1.1 3.4-1.1 5.1 0 1.3.2 2.5.7 3.7.4 1 .9 1.9 1.7 2.7h3.1c-.4-.3-.8-.6-1.2-1-1.8-1.8-2.6-4.2-2.4-6.8.1-1.3.5-2.6 1.1-3.8.6-1.3 1.5-2.5 2.7-3.6 1.1-1.1 2.3-1.9 3.6-2.6.1-.1.2-.1.3-.1h-3c-.7.5-1.3 1.1-2 1.7-1.6 1.3-2.7 2.9-3.5 4.7"/><path d="M-222.4 176.2h1.5c.1-.1.2-.2.2-.3 1.6-1.6 3.7-2.7 5.7-3l.2-.9h-1.7c-1.8.6-3.6 1.6-5.1 3.1-.2.4-.5.7-.8 1.1M-212.8 183.7c1.1-1.1 1.7-2.3 1.7-3.5 0-.9-.3-1.7-1-2.3-.3-.3-.7-.5-1.1-.7l-.2 1c.2.1.4.2.5.4.6.6.8 1.3.8 2.2-.1.8-.5 1.7-1.1 2.3-.4.4-.9.7-1.4.9l-.2.9c.7-.2 1.4-.6 2-1.2"/><path d="M-210.6 180.2c0 1.3-.6 2.7-1.8 3.9-.7.7-1.6 1.3-2.6 1.6l-.2 1.1c1.2-.3 2.4-1 3.4-2 2.6-2.6 3-6.1.9-8.2-.5-.5-1.2-.9-2-1.1l-.2 1.1c.5.2 1 .5 1.4.9.7.7 1.1 1.7 1.1 2.7"/><path d="M-212.7 180.7c.1-.7-.2-1.3-.6-1.7-.1-.1-.2-.1-.3-.2l-.9 4.5c.3-.2.6-.4.8-.6.6-.6.9-1.3 1-2M-230 188.7c-.2-.5-.3-.9-.5-1.4l-.6 2.8h1.7c-.2-.5-.4-1-.6-1.4M-228.1 183.6c0-1.8.4-3.6 1.2-5.3.8-1.8 2-3.5 3.5-5.1.5-.5.9-.9 1.4-1.3h-2.6l-.3.3c-1.4 1.4-2.6 3-3.5 4.6l-1.8 8.8c.1.9.4 1.9.7 2.7.2.5.5 1 .8 1.5h2.7c-.6-.7-1.1-1.6-1.4-2.5-.5-1-.7-2.3-.7-3.7M-223.1 182.7v.3h1.3v-.6c0-1.2.4-2.5 1.1-3.6h-1.3c-.7 1.2-1.1 2.6-1.1 3.9M-217.1 178.8h-1.1c-.9 1-1.4 2.2-1.4 3.3 0 .3 0 .6.1.9h1.1c-.2-.4-.3-.8-.3-1.2 0-1 .4-1.9 1.2-2.7.2-.1.3-.2.4-.3M-221.2 182.4v.6h1.1c-.1-.3-.1-.6-.1-.9 0-.7.2-1.4.5-2 .2-.4.5-.9.8-1.3h-1.1c-.8 1.1-1.2 2.3-1.2 3.6"/><path d="M-211.4 185.2c-1.1 1.1-2.5 1.9-3.9 2.2l-.2 1.2c1.8-.4 3.6-1.3 5-2.7 1.6-1.6 2.6-3.5 2.9-5.4 0-.3.1-.7.1-1v-.2c-.1-1.6-.7-2.9-1.8-4.1-.8-.8-1.9-1.4-3.1-1.6l-.3 1.3c.9.2 1.6.6 2.3 1.3 2.2 2.3 1.9 6.1-1 9"/><path d="M-209 174.7c.8.8 1.4 1.7 1.7 2.8v.1l.3-1.4h.8c-.4-1-.9-1.8-1.7-2.6-.7-.7-1.6-1.3-2.5-1.6h-1.7l-.2 1c.3 0 .6.1.8.2 1 .3 1.8.8 2.5 1.5M-205.5 176.2h2c-.4-1.6-1.2-3-2.3-4.2h-3.3c.6.3 1.1.7 1.6 1.2.9.9 1.6 1.9 2 3M-215.3 174.8l.3-1.2c-1.7.3-3.5 1.2-5 2.6h1.6c1-.7 2-1.2 3.1-1.4M-215.4 175.5c-.6.1-1.3.4-1.9.7h1.8l.1-.7zM-225.1 182.3c-.2 2.4.6 4.7 2.2 6.3.6.6 1.3 1.1 2.1 1.4h2.4l.2-.7c-1.4-.2-2.6-.8-3.6-1.8-.5-.5-.9-1.1-1.2-1.7h-1.4l.5-2.7h.2v-.3c0-1.3.4-2.7 1-4h-.3l.5-2.3c-1.5 1.7-2.4 3.8-2.6 5.8"/><path d="M-217.5 185.7h-2.3c.6.6 1.3.9 2.1 1.1l.2-1.1zM-217.8 187.4c-.9-.2-1.8-.7-2.5-1.4l-.3-.3h-1.8c.3.5.6.9 1 1.3.9.9 2 1.5 3.3 1.6l.3-1.2zM-209.8 190l.4-2c-.9.8-1.9 1.5-2.9 2h2.5zM-205.7 179.4h-1.3c0 .4 0 .7-.1 1.1-.2 1.1-.5 2.1-1.1 3.1h1.3c.6-1.1 1-2.3 1.1-3.5.1-.2.1-.4.1-.7M-202.2 172h-2.8c1 1.2 1.7 2.6 2.1 4.2h2.2c-.1-.9-.4-1.8-.7-2.7-.2-.5-.5-1-.8-1.5M-201.5 172c.2.4.4.8.6 1.3.2.5.4 1.1.5 1.6l.6-2.9h-1.7zM-203.2 179.4h-1.8c0 .3 0 .5-.1.8-.1 1.2-.5 2.3-1 3.5h1.8c.5-1.3.9-2.5 1-3.8 0-.2 0-.3.1-.5M-202.7 179.9c-.1 1.3-.5 2.5-1 3.8h1.4l.9-4.2h-1.2c-.1.1-.1.2-.1.4M-215.7 189.2l-.2.8h2c1.6-.6 3.2-1.6 4.5-2.8l.2-.2.5-2.4c-.4.6-.9 1.2-1.4 1.8-1.6 1.4-3.6 2.5-5.6 2.8M-217 179.5c-.7.7-1.1 1.5-1.1 2.3 0 .5.1.9.4 1.2h.6l.8-4.1c-.2.2-.5.4-.7.6"/></g></svg>